<?xml version="1.0" encoding="utf-8"?>
<!-- Generator: Adobe Illustrator 16.0.3, SVG Export Plug-In . SVG Version: 6.00 Build 0)  -->
<!DOCTYPE svg PUBLIC "-//W3C//DTD SVG 1.1//EN" "http://www.w3.org/Graphics/SVG/1.1/DTD/svg11.dtd">
<svg version="1.1" id="Capa_1" xmlns="http://www.w3.org/2000/svg" xmlns:xlink="http://www.w3.org/1999/xlink" x="0px" y="0px"
	 width="480px" height="480px" viewBox="0 0 480 480" enable-background="new 0 0 480 480" xml:space="preserve">
<g id="Aros" display="none">
	<g display="inline">
		<g>
			<path d="M190.249,379.824c-18.449-7.521-35.015-18.816-48.78-32.95"/>
			<g>
				<path d="M190.648,378.378c-18.12-7.515-34.359-18.599-48.119-32.563c-1.359-1.381-3.479,0.742-2.121,2.121
					c14.145,14.356,30.824,25.613,49.442,33.336C191.637,382.012,192.408,379.107,190.648,378.378L190.648,378.378z"/>
			</g>
		</g>
		<g>
			<path d="M274.824,386.85c-10.012,2.243-20.412,3.426-31.084,3.426c-7.243,0-14.361-0.545-21.316-1.596"/>
			<g>
				<path d="M274.426,385.402c-16.996,3.695-34.386,4.313-51.603,1.83c-1.892-0.271-2.707,2.617-0.798,2.894
					c17.778,2.563,35.645,1.985,53.198-1.83C277.113,387.885,276.313,384.993,274.426,385.402L274.426,385.402z"/>
			</g>
		</g>
		<g>
			<path d="M342.646,350.219c-9.903,9.53-21.134,17.645-33.375,24.027"/>
			<g>
				<path d="M341.586,349.158c-9.922,9.438-20.97,17.39-33.071,23.793c-1.711,0.904-0.193,3.494,1.515,2.59
					c12.322-6.52,23.579-14.656,33.679-24.262C345.111,349.943,342.986,347.826,341.586,349.158L341.586,349.158z"/>
			</g>
		</g>
		<g>
			<path d="M383.6,278.912c-3.908,16.052-10.407,31.063-19.021,44.54"/>
			<g>
				<path d="M382.153,278.514c-3.921,15.692-10.239,30.5-18.869,44.183c-1.036,1.642,1.562,3.146,2.59,1.514
					c8.763-13.892,15.19-28.966,19.172-44.897C385.516,277.434,382.622,276.639,382.153,278.514L382.153,278.514z"/>
			</g>
		</g>
		<g>
			<path d="M379.948,195.385c4.813,14.178,7.556,29.34,7.857,45.113"/>
			<g>
				<path d="M378.502,195.784c4.821,14.492,7.417,29.445,7.805,44.714c0.05,1.932,3.05,1.936,3,0
					c-0.395-15.524-3.008-30.772-7.912-45.512C380.787,193.16,377.89,193.943,378.502,195.784L378.502,195.784z"/>
			</g>
		</g>
		<g>
			<path d="M346.836,140.829c7.841,8.182,14.751,17.294,20.558,27.158"/>
			<g>
				<path d="M345.775,141.89c7.765,8.203,14.532,17.156,20.322,26.854c0.99,1.659,3.584,0.151,2.59-1.515
					c-5.919-9.915-12.854-19.075-20.791-27.461C346.564,138.361,344.446,140.486,345.775,141.89L345.775,141.89z"/>
			</g>
		</g>
		<g>
			<path d="M290.307,104.412c11.28,3.924,21.933,9.234,31.759,15.731"/>
			<g>
				<path d="M289.907,105.858c11.09,3.937,21.547,9.152,31.399,15.58c1.625,1.061,3.127-1.538,1.515-2.591
					c-10.068-6.569-20.789-11.861-32.117-15.882C288.877,102.316,288.098,105.216,289.907,105.858L289.907,105.858z"/>
			</g>
		</g>
		<g>
			<path d="M208.686,100.951c11.222-2.858,22.964-4.376,35.055-4.376c2.178,0,4.344,0.049,6.497,0.146"/>
			<g>
				<path d="M209.084,102.397c13.5-3.345,27.258-4.725,41.152-4.176c1.937,0.077,1.929-2.924,0-3
					c-14.156-0.559-28.199,0.875-41.95,4.283C206.41,99.969,207.206,102.862,209.084,102.397L209.084,102.397z"/>
			</g>
		</g>
		<g>
			<path d="M145.217,136.263c8.235-7.867,17.378-14.759,27.251-20.497"/>
			<g>
				<path d="M146.278,137.324c8.227-7.762,17.205-14.518,26.948-20.262c1.665-0.982,0.156-3.575-1.515-2.591
					c-9.96,5.873-19.146,12.797-27.554,20.731C142.747,136.533,144.872,138.65,146.278,137.324L146.278,137.324z"/>
			</g>
		</g>
		<g>
			<path d="M105.108,203.237c3.458-12.412,8.477-24.155,14.828-34.993"/>
			<g>
				<path d="M106.554,203.636c3.465-12.145,8.358-23.7,14.677-34.635c0.969-1.678-1.624-3.188-2.591-1.514
					c-6.445,11.155-11.444,22.962-14.979,35.351C103.13,204.703,106.024,205.493,106.554,203.636L106.554,203.636z"/>
			</g>
		</g>
		<g>
			<path d="M101.435,264.316c-0.946-6.797-1.435-13.828-1.435-20.893c0-0.197,0-0.425,0-0.425"/>
			<g>
				<path d="M102.581,264.23c-0.95-7.103-1.446-14.233-1.434-21.4c0.003-1.936-2.997-1.936-3,0
					c-0.012,7.167,0.484,14.299,1.434,21.4C99.833,266.12,102.836,266.145,102.581,264.23L102.581,264.23z"/>
			</g>
		</g>
		<g>
			<path d="M117.156,313.645c-4.13-7.716-7.601-15.852-10.334-24.328"/>
			<g>
				<path d="M118.451,312.889c-4.069-7.712-7.458-15.688-10.184-23.971c-0.602-1.829-3.5-1.046-2.893,0.797
					c2.807,8.526,6.296,16.748,10.485,24.688C116.764,316.113,119.353,314.598,118.451,312.889L118.451,312.889z"/>
			</g>
		</g>
	</g>
	<g display="inline">
		<g>
			<path d="M333.495,117.913c16.692,12.476,30.492,28.304,40.709,46.293"/>
			<g>
				<path d="M332.738,119.208c16.394,12.398,29.929,27.948,40.171,45.755c0.964,1.676,3.557,0.166,2.59-1.515
					c-10.513-18.277-24.428-34.111-41.247-46.832C332.708,115.45,331.216,118.057,332.738,119.208L332.738,119.208z"/>
			</g>
		</g>
		<g>
			<path d="M249.755,88.692c10.72,0.327,21.556,1.835,32.354,4.619c7.33,1.89,14.391,4.302,21.152,7.186"/>
			<g>
				<path d="M249.755,90.192c18.333,0.678,36.193,4.662,53.106,11.751c1.783,0.748,2.555-2.156,0.798-2.893
					c-17.157-7.192-35.316-11.171-53.904-11.859C247.818,87.12,247.826,90.121,249.755,90.192L249.755,90.192z"/>
			</g>
		</g>
		<g>
			<path d="M171.501,108.321c12.526-7.126,26.021-12.465,40.085-15.773"/>
			<g>
				<path d="M172.259,109.616c12.511-7.021,25.782-12.252,39.727-15.623c1.88-0.454,1.082-3.347-0.798-2.893
					c-14.191,3.429-27.714,8.781-40.444,15.924C169.058,107.972,170.569,110.564,172.259,109.616L172.259,109.616z"/>
			</g>
		</g>
		<g>
			<path d="M111.333,170.285c8.171-15.335,18.689-28.931,30.945-40.416"/>
			<g>
				<path d="M112.628,171.042c8.078-14.961,18.367-28.419,30.71-40.113c1.407-1.333-0.718-3.451-2.121-2.121
					c-12.521,11.861-22.986,25.545-31.18,40.719C109.119,171.23,111.709,172.744,112.628,171.042L112.628,171.042z"/>
			</g>
		</g>
		<g>
			<path d="M93.091,256.333c-1.148-15.698,0.059-31.862,3.895-48.01"/>
			<g>
				<path d="M94.591,256.333c-1.075-16.033,0.223-31.953,3.841-47.611c0.435-1.883-2.457-2.682-2.893-0.798
					c-3.676,15.908-5.042,32.113-3.949,48.409C91.72,258.253,94.721,258.266,94.591,256.333L94.591,256.333z"/>
			</g>
		</g>
		<g>
			<path d="M112.27,320.557c-5.786-10.384-10.385-21.469-13.671-33.033"/>
			<g>
				<path d="M113.565,319.799c-5.712-10.392-10.213-21.287-13.52-32.674c-0.539-1.854-3.434-1.064-2.893,0.797
					c3.378,11.633,7.987,22.776,13.822,33.391C111.906,323.008,114.497,321.495,113.565,319.799L113.565,319.799z"/>
			</g>
		</g>
		<g>
			<path d="M159.91,372.404c-10.385-6.942-19.77-15.129-28.006-24.313"/>
			<g>
				<path d="M160.667,371.109c-10.201-6.909-19.426-14.957-27.703-24.078c-1.303-1.436-3.418,0.691-2.121,2.121
					c8.448,9.31,17.903,17.498,28.31,24.547C160.759,374.788,162.259,372.188,160.667,371.109L160.667,371.109z"/>
			</g>
		</g>
		<g>
			<path d="M241.596,397.223c-12.105-0.015-24.387-1.533-36.623-4.687c-2.202-0.567-4.382-1.185-6.535-1.845"/>
			<g>
				<path d="M241.596,395.723c-14.54-0.107-28.837-2.287-42.759-6.478c-1.857-0.56-2.646,2.337-0.798,2.894
					c14.172,4.265,28.759,6.475,43.557,6.584C243.531,398.737,243.529,395.736,241.596,395.723L241.596,395.723z"/>
			</g>
		</g>
		<g>
			<path d="M315.097,377.801c-10.399,5.867-21.463,10.504-32.96,13.773"/>
			<g>
				<path d="M314.34,376.506c-10.355,5.762-21.223,10.313-32.602,13.622c-1.854,0.539-1.064,3.435,0.797,2.894
					c11.625-3.383,22.74-8.039,33.317-13.926C317.544,378.154,316.031,375.564,314.34,376.506L314.34,376.506z"/>
			</g>
		</g>
		<g>
			<path d="M373.273,320.03c-6.759,11.745-14.921,22.399-24.193,31.784"/>
			<g>
				<path d="M371.979,319.273c-6.687,11.471-14.68,21.983-23.959,31.48c-1.353,1.385,0.769,3.507,2.121,2.121
					c9.454-9.675,17.615-20.4,24.429-32.089C375.545,319.111,372.952,317.604,371.979,319.273L371.979,319.273z"/>
			</g>
		</g>
		<g>
			<path d="M393.369,258.939c-0.829,7.172-2.156,14.379-4.016,21.574c-0.05,0.199-0.102,0.401-0.151,0.604"/>
			<g>
				<path d="M391.869,258.939c-0.891,7.359-2.297,14.595-4.113,21.778c-0.475,1.876,2.419,2.673,2.894,0.798
					c1.883-7.447,3.299-14.951,4.221-22.576C395.102,257.021,392.099,257.045,391.869,258.939L391.869,258.939z"/>
			</g>
		</g>
		<g>
			<path d="M390.078,204.405c2.155,8.939,3.53,18.132,4.069,27.483"/>
			<g>
				<path d="M388.632,204.804c2.095,8.923,3.434,17.936,4.017,27.084c0.121,1.921,3.122,1.933,3,0
					c-0.601-9.413-1.968-18.698-4.123-27.882C391.082,202.123,388.189,202.922,388.632,204.804L388.632,204.804z"/>
			</g>
		</g>
	</g>
	<g display="inline">
		<g>
			<path d="M183.857,392.6c-20.431-8.346-38.778-20.873-54.022-36.552"/>
			<g>
				<path d="M184.256,391.152c-20.093-8.334-38.124-20.656-53.361-36.166c-1.357-1.381-3.478,0.74-2.121,2.121
					c15.622,15.901,34.093,28.396,54.684,36.938C185.246,394.786,186.017,391.883,184.256,391.152L184.256,391.152z"/>
			</g>
		</g>
		<g>
			<path d="M277.521,400.391c-11.086,2.488-22.605,3.802-34.426,3.802c-8.021,0-15.903-0.604-23.607-1.771"/>
			<g>
				<path d="M277.123,398.944c-18.836,4.113-38.155,4.805-57.234,2.03c-1.892-0.274-2.706,2.615-0.798,2.894
					c19.641,2.854,39.437,2.204,58.829-2.031C279.811,401.424,279.009,398.532,277.123,398.944L277.123,398.944z"/>
			</g>
		</g>
		<g>
			<path d="M352.632,359.758c-10.967,10.572-23.404,19.573-36.961,26.653"/>
			<g>
				<path d="M351.571,358.697c-10.986,10.477-23.241,19.316-36.657,26.419c-1.711,0.905-0.194,3.493,1.514,2.59
					c13.638-7.22,26.102-16.241,37.266-26.888C355.095,359.48,352.971,357.363,351.571,358.697L351.571,358.697z"/>
			</g>
		</g>
		<g>
			<path d="M397.986,280.66c-4.329,17.807-11.527,34.455-21.063,49.406"/>
			<g>
				<path d="M396.54,280.262c-4.333,17.413-11.343,33.869-20.912,49.049c-1.035,1.643,1.563,3.146,2.59,1.515
					c9.701-15.388,16.822-32.113,21.215-49.767C399.9,279.182,397.007,278.385,396.54,280.262L396.54,280.262z"/>
			</g>
		</g>
		<g>
			<path d="M393.942,188.008c5.332,15.727,8.366,32.546,8.702,50.042"/>
			<g>
				<path d="M392.496,188.407c5.354,16.079,8.229,32.701,8.648,49.643c0.049,1.931,3.049,1.936,3,0
					c-0.426-17.197-3.319-34.115-8.757-50.44C394.781,185.783,391.883,186.566,392.496,188.407L392.496,188.407z"/>
			</g>
		</g>
		<g>
			<path d="M357.272,127.49c8.683,9.077,16.335,19.184,22.767,30.125"/>
			<g>
				<path d="M356.212,128.551c8.612,9.104,16.122,19.054,22.532,29.822c0.988,1.66,3.582,0.152,2.59-1.515
					c-6.539-10.984-14.216-21.143-23.001-30.429C357.001,125.021,354.884,127.147,356.212,128.551L356.212,128.551z"/>
			</g>
		</g>
		<g>
			<path d="M294.667,87.094c12.492,4.354,24.29,10.243,35.172,17.45"/>
			<g>
				<path d="M294.27,88.541c12.294,4.363,23.899,10.158,34.813,17.299c1.624,1.063,3.125-1.536,1.514-2.591
					c-11.13-7.282-22.997-13.153-35.529-17.601C293.238,84.999,292.458,87.898,294.27,88.541L294.27,88.541z"/>
			</g>
		</g>
		<g>
			<path d="M204.275,83.255c12.428-3.171,25.433-4.854,38.823-4.854c2.41,0,4.812,0.055,7.194,0.163"/>
			<g>
				<path d="M204.674,84.701c14.959-3.723,30.218-5.248,45.618-4.638c1.937,0.077,1.929-2.924,0-3
					c-15.662-0.62-31.207,0.959-46.416,4.745C202,82.275,202.796,85.168,204.674,84.701L204.674,84.701z"/>
			</g>
		</g>
		<g>
			<path d="M133.986,122.426c9.12-8.727,19.246-16.372,30.18-22.736"/>
			<g>
				<path d="M135.047,123.486c9.111-8.621,19.072-16.13,29.876-22.501c1.665-0.982,0.156-3.576-1.514-2.591
					c-11.021,6.5-21.191,14.178-30.483,22.971C131.518,122.697,133.643,124.815,135.047,123.486L135.047,123.486z"/>
			</g>
		</g>
		<g>
			<path d="M89.566,196.718c3.829-13.769,9.388-26.794,16.421-38.817"/>
			<g>
				<path d="M91.013,197.117c3.828-13.48,9.258-26.325,16.27-38.458c0.97-1.678-1.624-3.188-2.591-1.515
					c-7.138,12.353-12.675,25.452-16.572,39.175C87.59,198.184,90.485,198.975,91.013,197.117L91.013,197.117z"/>
			</g>
		</g>
		<g>
			<path d="M85.588,264.557C84.541,257.018,84,249.131,84,241.296c0-0.22,0-0.296,0-0.296"/>
			<g>
				<path d="M86.606,264.375c-1.052-7.879-1.6-15.789-1.588-23.739c0.003-1.935-2.997-1.935-3,0
					c-0.012,7.95,0.536,15.86,1.588,23.739C83.858,266.264,86.861,266.288,86.606,264.375L86.606,264.375z"/>
			</g>
		</g>
		<g>
			<path d="M102.909,319.188c-4.574-8.558-8.417-17.582-11.445-26.984"/>
			<g>
				<path d="M104.205,318.432c-4.516-8.563-8.275-17.431-11.294-26.628c-0.601-1.829-3.498-1.046-2.893,0.798
					c3.1,9.442,6.96,18.553,11.596,27.344C102.517,321.656,105.106,320.141,104.205,318.432L104.205,318.432z"/>
			</g>
		</g>
	</g>
</g>
<g id="Lobo">
	<path fill="#FFFFFF" stroke="#000000" stroke-miterlimit="10" d="M100.272,221.729c-6.584-5.813-2.287-16.27-4.319-23.205
		c-2.143-7.32-4.447-13.281-4.431-21.021c0.03-16.835,2.092-32.086,9.842-48.015c6.641-13.654,18.393-26.535,34.193-36.704
		c7.995-5.145,10.48-10.886,19.417-14.641c8.84-3.713,17.172-10.082,26.258-13.124c12.699-4.25,29.292-0.125,39.377-9.015
		c7.399-6.518,8.788-15.971,17.265-22.309c8.53-6.372,17.172-12.303,27.593-16.439c11.428-4.532,23.58-6.06,36.375-9.125
		c2.829,12.198-10.347,28.949,4.296,39.623c3.519,2.563,9.843,3.027,14.005,5.044c5.179,2.505,15.729,3.094,20.815,5.474
		c9.011,4.212,10.66,7.852,19.665,12.559c9.5,4.965,16.133,10.574,23.85,16.682c8.444,6.681,8.885,9.046,21.943,10.666
		c6.036,0.748,10.482,1.892,17.76,2.082c9.13,0.239,8.14,1.955,15.244,3.576c8.313,1.899,20.861-0.768,28.443,1.656
		c8.617,2.758,3.406,3.516,2.407,7.703c-0.612,2.549-10.862,8.471-12.253,11.06c-2.831,5.29-3.534,10.438-9.548,14.415
		c-16.096,10.642-36.733,15.716-56.044,21.012c-15.723,4.308-49.289,0.348-65.691-3.934c-11.664-3.045-10.94-8.043-32.819-3.749
		c-11.114,2.179-13.933,4.893-20.815,10.514c-12.712,10.382-13.344,21.101-16.353,33.759c-2.71,11.396-13.443,26-8.89,38.129
		c-14.502-7.718-20.375-22.112-23.269-28.455c-1.425-3.126-5.205-11.4-5.064-14.902c0.194-4.93,5.18-8.549,6.584-13.368
		c0.969-3.327,0.169-6.724,1.281-10.042c1.264-3.773,7.564-8.644,7.71-11.891c0.543-12.275-11.048,2.834-13.667,5.957
		c-5.217,6.218-12.252,11.562-17.209,17.985c-5.528,7.172-6.549,15.208-9.922,22.383c-3.309,7.043-7.718,15.336-5.437,23.451
		c1.401,4.979,5.82,9.409,6.582,14.205c1.072,6.741-0.538,11.061,4.141,17.343c8.122,10.912,17.44,22.356,24.165,33.343
		c-12.474,1.621-25.69-4.291-37.049-7.369c-13.519-3.661-25.062-7.581-36.406-14.071c-7.426-4.252-9.143-9.418-15.231-14.305
		c-4.986-4.002-12.652-5.816-17.071-10.463c-6.851-7.206-11.204-17.154-17.723-24.722"/>
	<path stroke="#000000" stroke-miterlimit="10" d="M328.924,75.518c14.394-1.089,31.699-4.687,41.398,12.674
		c-6.808,0.889-17.36,3.097-24.109,2.17c-7.522-1.036-22.391-10.878-16.193-15.594"/>
	<path fill="#FFFFFF" stroke="#000000" stroke-miterlimit="10" d="M320.174,176.74c6.129-0.361,8.418,7.234,16.244,9.149
		c1.867,8.073,10.055,13.205,13.11,20.839c2.329,5.829,4.533,11.288,6.746,17.171c6.729,17.861,0.993,34.919-12.069,50.987
		c-11.428,14.056-7.643,16.589-42.633,29.32c-5.336,1.94-23.496,2.546-29.803,3.933c-8.81,1.938-17.978,1.315-27.551,1.315
		c-12.84,0-25.628,0.479-38.069-1.256c-29.422-4.101-63.883-4.994-93.601,0.468c-12.331,2.266-23.641,8.154-35.007,12.234
		c-10.532,3.781-29.661,9.979-28.524,20.681c8.148,1.239,17.798-3.753,26.094-4.386c9.729-0.743,20.807-0.238,30.522,0.133
		c0.404,0.719,0.646,1.313,1.113,1.964c-7.884-0.838-7.56,2.179-12.376,4.653c-7.154,3.685-8.869,2.646-16.04,4.666
		c-8.26,2.326-17.524,7.771-24.306,11.024c-8.497,4.075-13.345,12.272-18.847,18.813c-5.431,6.453-12.975,10.481-18.322,17.248
		c-9.354,11.836-7.596,23.351-9.551,36.739c-2.002,13.725,5.409,26.085,4.293,39.455c16.196-31.299,54.037-45.22,97.426-52.971
		c19.481-3.479,52.781-4.822,73.299-5.249c14.011-0.29,25.566,3.979,44.852,3.001c22.335-1.131,28.101-2.372,41.767-3.001
		c32.629-1.495,10-2.593,18.586-3.75c5.752-0.771,26.599-1.871,31.612-3.311c20.594-5.908,38.622-8.314,55.482-18.115
		c16.769-9.746,41.313-18.794,50.576-32.557c18.928-28.125,28.267-30.863,32.898-50.239c3.625-15.166,0.838-30.087-0.081-46.523
		c-1.331-23.933-23.792-46.047-50.328-59.779c-7.556-3.915-11.25-9.593-20.15-12.725c-7.174-2.521-16.532-4.932-24.483-6.807
		c-6.965-1.646-16.216-2.346-23.188-3.544c-5.931-1.02-17.003-4.301-22.062-1.063c2.824,0.491,7.683,1.725,10.021,3.729"/>
</g>
<g id="Texto" display="none">
	
		<text transform="matrix(1.3002 0 0.5393 0.8421 133.1074 294.7168)" display="inline" font-family="'AgencyFB-Reg'" font-size="71.2517">SoftWolf</text>
	<g display="inline">
		<g>
			<path d="M144.066,322.2c-0.017,0.409-0.13,0.68-0.335,0.804c-0.206,0.125-0.458,0.08-0.755-0.127
				c-1.467-1.021-2.193-1.544-3.635-2.607c-0.292-0.216-0.705-0.496-0.889-0.841c-0.185-0.343-0.452-0.674-0.452-0.999
				c0-5.343,0-8.012,0-13.354c0-0.325,0.281-0.572,0.495-0.778c0.213-0.205,0.665-0.298,1.002-0.298c1.666,0,2.499,0,4.164,0
				c0.337,0,0.611,0.111,0.821,0.371c0.209,0.26,0.306,0.591,0.289,1c-0.077,1.824-0.113,2.734-0.19,4.561
				c-0.559-0.106-0.839-0.162-1.396-0.271c0.059-1.687,0.088-2.528,0.146-4.214c-1.425-0.069-2.138-0.104-3.561-0.178
				c-0.066,5.557-0.098,8.332-0.164,13.889c1.262,0.844,1.897,1.258,3.176,2.074c0.064-1.844,0.096-2.766,0.16-4.607
				c0.532,0.24,0.799,0.361,1.333,0.6C144.191,319.215,144.149,320.21,144.066,322.2z"/>
			<path d="M151.307,328.331c-0.501-0.308-0.751-0.464-1.25-0.776c0.332-5.146,0.497-7.721,0.829-12.867
				c-1.164-0.266-1.744-0.401-2.9-0.684c-0.265,4.723-0.396,7.083-0.662,11.805c-0.493-0.322-0.741-0.47-1.231-0.796
				c0.433-8.411,0.65-13.013,1.083-21.013c0.55,0,0.824,0,1.374,0c-0.194,3-0.291,5.168-0.485,8.623
				c0.527,0.033,1.06,0.056,1.588,0.077c0.669,0.026,1.195,0.071,1.574,0.155c0.738,0.162,1.071,0.806,0.995,1.938
				C151.855,320.209,151.672,322.915,151.307,328.331z"/>
			<path d="M156.158,310.359c-0.548-0.072-0.821-0.107-1.368-0.183c0.079-1.101,0.118-1.649,0.197-2.751
				c0.552,0.041,0.828,0.063,1.38,0.104C156.283,308.662,156.241,309.229,156.158,310.359z M154.667,330.34
				c-0.5-0.292-0.75-0.438-1.249-0.734c0.457-6.373,0.686-9.563,1.142-15.937c0.525,0.112,0.787,0.168,1.313,0.278
				C155.39,320.504,155.149,323.783,154.667,330.34z"/>
			<path d="M162.593,330.438c-0.094,1.172-0.367,2.057-0.813,2.627c-0.447,0.572-0.96,0.695-1.538,0.388
				c-0.853-0.456-1.276-0.685-2.124-1.151c-0.208,2.672-0.313,4.006-0.52,6.678c-0.506-0.352-0.758-0.528-1.261-0.886
				c0.724-9.471,1.087-14.202,1.811-23.673c0.535,0.109,0.802,0.161,1.338,0.27c-0.015,0.194-0.022,0.295-0.038,0.489
				c0.54-0.009,1.082-0.022,1.622-0.044c0.684-0.025,1.222-0.01,1.606,0.063c0.749,0.143,1.068,0.92,0.954,2.34
				C163.215,322.697,163.008,325.275,162.593,330.438z M161.312,329.465c0.38-4.77,0.571-7.156,0.951-11.926
				c-1.186-0.214-1.775-0.324-2.955-0.555c-0.41,5.277-0.615,7.918-1.025,13.195c0.715,0.362,1.075,0.545,1.794,0.899
				C160.786,331.432,161.198,330.891,161.312,329.465z"/>
			<path d="M169.97,335.709c-0.133,1.646-0.576,2.301-1.321,1.952c-1.279-0.599-1.915-0.902-3.183-1.526
				c-0.739-0.363-1.046-1.314-0.922-2.836c0.489-6.035,0.735-9.051,1.224-15.086c0.123-1.52,0.564-2.211,1.323-2.072
				c1.302,0.235,1.954,0.351,3.26,0.576c0.761,0.133,1.076,1.021,0.942,2.665c-0.248,3.062-0.371,4.591-0.619,7.65
				c-0.215,0.354-0.324,0.532-0.539,0.882c-1.496-0.482-2.241-0.729-3.726-1.236c-0.235,2.9-0.354,4.352-0.589,7.252
				c1.137,0.516,1.707,0.771,2.853,1.271c0.124-1.528,0.187-2.295,0.311-3.823c0.519,0.197,0.779,0.294,1.299,0.487
				C170.158,333.4,170.094,334.171,169.97,335.709z M169.472,325.363c0.205-2.518,0.307-3.775,0.511-6.292
				c-1.165-0.241-1.746-0.365-2.906-0.615c-0.196,2.414-0.295,3.623-0.491,6.037C167.737,324.848,168.315,325.021,169.472,325.363z"
				/>
			<path d="M177.872,338.859c-0.141,1.812-0.597,2.563-1.365,2.246c-1.363-0.56-2.043-0.846-3.394-1.434
				c-0.755-0.328-1.063-1.344-0.926-3.039c0.541-6.722,0.812-10.081,1.353-16.802c0.136-1.692,0.587-2.478,1.353-2.354
				c1.37,0.224,2.055,0.33,3.429,0.541c0.775,0.119,1.091,1.086,0.95,2.894C178.711,328.091,178.432,331.682,177.872,338.859z
				 M176.52,338.254c0.551-6.998,0.825-10.499,1.376-17.497c-1.204-0.223-1.804-0.336-3.004-0.567
				c-0.541,6.761-0.811,10.143-1.352,16.902C174.728,337.566,175.323,337.798,176.52,338.254z"/>
			<path d="M181.835,338.673c-0.58,2.747-0.871,4.108-1.449,6.804c-0.396-0.162-0.592-0.242-0.986-0.406
				c0.335-2.766,0.503-4.152,0.839-6.937C180.876,338.354,181.195,338.459,181.835,338.673z"/>
			<path d="M188.548,352.547c-0.14,2.01-0.607,2.859-1.397,2.533c-0.696-0.287-1.043-0.434-1.736-0.729
				c0.088-1.221,0.132-1.83,0.22-3.051c0.618,0.248,0.927,0.37,1.547,0.611c0.762-10.773,1.525-21.546,2.287-32.319
				c0.544,0.069,0.815,0.105,1.359,0.175C190.068,330.693,189.307,341.62,188.548,352.547z M191.243,314.086
				c-0.56-0.045-0.839-0.068-1.399-0.113c0.125-1.773,0.189-2.66,0.314-4.434c0.559,0.025,0.838,0.038,1.397,0.063
				C191.431,311.396,191.367,312.293,191.243,314.086z"/>
			<path d="M197.287,348.219c-0.557-0.154-0.835-0.232-1.391-0.391c0.019-0.303,0.028-0.454,0.047-0.758
				c-0.578,0.048-1.153,0.08-1.721,0.101c-0.69,0.022-1.258-0.039-1.701-0.175c-0.759-0.232-1.072-1.329-0.94-3.286
				c0.638-9.462,0.959-14.192,1.597-23.655c0.545,0.065,0.817,0.098,1.363,0.161c-0.62,9.371-0.93,14.056-1.549,23.427
				c1.249,0.263,1.875,0.389,3.129,0.627c0.598-9.482,0.897-14.225,1.495-23.705c0.547,0.06,0.821,0.09,1.368,0.147
				C198.306,331.715,197.965,337.215,197.287,348.219z"/>
			<path d="M205.604,346.938c-0.118,2.229-0.58,3.254-1.381,3.063c-1.375-0.325-2.06-0.495-3.428-0.847
				c-0.798-0.204-1.132-1.391-1.004-3.551c0.508-8.566,0.764-12.853,1.271-21.418c0.128-2.158,0.582-3.197,1.363-3.121
				c1.34,0.134,2.01,0.199,3.353,0.321c0.783,0.072,1.115,1.222,0.997,3.447c-0.22,4.144-0.329,6.214-0.549,10.356
				c-0.221,0.525-0.332,0.789-0.552,1.313c-1.573-0.261-2.358-0.396-3.925-0.682c-0.235,4.068-0.353,6.102-0.588,10.171
				c1.22,0.29,1.832,0.431,3.057,0.702c0.114-2.092,0.172-3.139,0.286-5.229c0.55,0.106,0.824,0.16,1.375,0.265
				C205.769,343.813,205.714,344.854,205.604,346.938z M204.952,333.238c0.188-3.443,0.281-5.165,0.469-8.608
				c-1.203-0.131-1.804-0.198-3.004-0.339c-0.196,3.387-0.294,5.08-0.49,8.467C203.134,332.957,203.74,333.053,204.952,333.238z"/>
			<path d="M213.436,359.861c-0.101,2.313-0.564,3.38-1.389,3.188c-1.386-0.321-2.076-0.491-3.456-0.844
				c-0.836-0.214-1.182-1.755-1.038-4.608c0.017-0.341,0.047-0.843,0.091-1.51c0.044-0.664,0.074-1.148,0.089-1.449
				c0.567,0.133,0.85,0.2,1.418,0.327c-0.076,1.556-0.113,2.329-0.189,3.886c1.21,0.291,1.817,0.431,3.031,0.698
				c0.141-3.126,0.212-4.685,0.354-7.812c-0.949-0.182-1.424-0.274-2.371-0.469c-0.642-0.131-1.146-0.846-1.51-2.123
				c-0.365-1.275-0.5-2.807-0.41-4.603c0.343-6.812,0.517-10.215,0.86-17.024c0.086-1.715,0.34-3.129,0.762-4.246
				c0.422-1.116,0.93-1.654,1.525-1.607c0.161,0.014,0.976,0.411,2.447,1.201c0.015-0.329,0.022-0.495,0.037-0.824
				c0.556,0.041,0.833,0.063,1.389,0.102C214.53,334.717,213.984,347.29,213.436,359.861z M212.508,348.165
				c0.405-8.974,0.608-13.457,1.013-22.431c-1.103-0.303-1.745-0.465-1.928-0.48c-0.773-0.072-1.215,1.016-1.325,3.264
				c-0.306,6.274-0.46,9.412-0.767,15.688c-0.11,2.249,0.23,3.452,1.021,3.602C211.315,347.955,211.713,348.023,212.508,348.165z"/>
			<path d="M222.376,349.8c-0.079,2.378-0.53,3.513-1.354,3.394c-1.46-0.211-2.19-0.322-3.645-0.562
				c-0.813-0.133-1.17-1.37-1.075-3.702c0.376-9.252,0.563-13.879,0.939-23.13c0.095-2.33,0.536-3.47,1.323-3.419
				c1.409,0.09,2.113,0.133,3.523,0.213c0.795,0.045,1.154,1.256,1.075,3.631C222.849,335.654,222.69,340.369,222.376,349.8z
				 M220.933,349.482c0.326-9.291,0.49-13.935,0.815-23.226c-1.242-0.084-1.864-0.129-3.104-0.223
				c-0.358,9.196-0.537,13.796-0.895,22.993C219.021,349.221,219.657,349.311,220.933,349.482z"/>
			<path d="M230.469,350.675c-0.057,2.425-0.499,3.601-1.326,3.517c-1.34-0.137-2.01-0.211-3.348-0.369
				c-0.826-0.1-1.203-1.348-1.13-3.74c0.085-2.807,0.128-4.21,0.214-7.018c0.567,0.058,0.852,0.084,1.419,0.138
				c-0.08,2.79-0.121,4.187-0.201,6.978c1.175,0.129,1.764,0.188,2.94,0.301c0.063-2.488,0.093-3.734,0.156-6.224
				c-1.419-3.782-2.12-5.665-3.504-9.405c-0.332-0.877-0.477-1.986-0.436-3.343c0.063-2.059,0.095-3.087,0.157-5.146
				c0.073-2.391,0.507-3.567,1.304-3.53c1.272,0.06,1.909,0.088,3.182,0.14c0.797,0.031,1.167,1.256,1.11,3.676
				c-0.058,2.496-0.087,3.746-0.146,6.242c-0.553-0.031-0.829-0.049-1.382-0.082c0.062-2.464,0.093-3.694,0.155-6.158
				c-1.144-0.056-1.715-0.086-2.857-0.148c-0.063,2.166-0.093,3.254-0.156,5.42c1.396,3.734,2.102,5.614,3.534,9.391
				c0.333,0.861,0.484,2.013,0.45,3.449C230.551,347.126,230.524,348.309,230.469,350.675z"/>
			<path d="M234.537,348.952c-0.453,3.692-0.68,5.536-1.142,9.217c-0.425-0.036-0.638-0.054-1.063-0.092
				c0.205-3.694,0.309-5.543,0.511-9.242C233.521,348.885,233.859,348.907,234.537,348.952z"/>
			<path d="M247.063,348.342c-0.004,1.965-0.224,3.592-0.66,4.883c-0.438,1.293-0.987,1.936-1.644,1.922
				c-0.968-0.021-1.448-0.035-2.416-0.066c-0.04,4.82-0.063,7.229-0.103,12.049c-0.596-0.023-0.895-0.037-1.489-0.066
				c0.149-14.592,0.294-29.183,0.442-43.773c0.563,0.009,0.849,0.012,1.412,0.02c-0.004,0.354-0.004,0.528-0.008,0.881
				c0.562-0.209,1.125-0.42,1.68-0.635c0.707-0.271,1.265-0.414,1.666-0.412c0.785,0.006,1.176,1.194,1.17,3.574
				C247.094,335.365,247.084,339.691,247.063,348.342z M245.609,347.67c0.033-8.176,0.054-12.266,0.088-20.439
				c-1.249,0.095-1.875,0.139-3.125,0.224c-0.079,9.521-0.119,14.282-0.198,23.806c0.81,0.025,1.213,0.035,2.021,0.053
				C245.193,351.329,245.6,350.111,245.609,347.67z"/>
			<path d="M255.378,351.391c0.021,2.459-0.382,3.705-1.206,3.729c-1.413,0.038-2.119,0.05-3.533,0.063
				c-0.824,0.008-1.24-1.228-1.242-3.692c-0.006-9.778-0.008-14.667-0.016-24.445c-0.002-2.463,0.396-3.692,1.188-3.696
				c1.356-0.005,2.035-0.011,3.392-0.024c0.791-0.009,1.194,1.218,1.215,3.675c0.038,4.572,0.058,6.857,0.097,11.432
				c-0.189,0.617-0.285,0.926-0.477,1.545c-1.604,0.034-2.404,0.047-4.008,0.059c0.012,4.605,0.018,6.91,0.029,11.518
				c1.258-0.012,1.885-0.021,3.143-0.053c-0.016-2.326-0.021-3.49-0.035-5.816c0.563-0.012,0.846-0.02,1.407-0.035
				C255.35,347.939,255.359,349.092,255.378,351.391z M253.861,336.527c-0.023-3.83-0.035-5.748-0.061-9.578
				c-1.219,0.015-1.826,0.02-3.046,0.025c0.011,3.834,0.013,5.752,0.022,9.588C252.012,336.555,252.629,336.548,253.861,336.527z"/>
			<path d="M259.37,354.921c-0.578,0.031-0.867,0.054-1.445,0.079c-0.194-17.002-0.393-34-0.585-51c0.541,0,0.813,0,1.354,0
				C258.921,321,259.143,337.941,259.37,354.921z"/>
			<path d="M262.71,316.247c-0.565,0.011-0.851,0.014-1.416,0.022c-0.036-2.181-0.052-3.27-0.088-5.449
				c0.563-0.006,0.843-0.01,1.405-0.016C262.65,312.98,262.67,314.07,262.71,316.247z M263.395,354.648
				c-0.578,0.043-0.867,0.063-1.443,0.103c-0.176-10.522-0.352-21.045-0.521-31.567c0.555-0.015,0.834-0.023,1.389-0.041
				C263.012,333.645,263.2,344.146,263.395,354.648z"/>
			<path d="M271.71,350.239c0.069,2.399-0.308,3.649-1.127,3.741c-1.388,0.156-2.081,0.227-3.472,0.355
				c-0.82,0.077-1.258-1.104-1.31-3.533c-0.207-9.637-0.309-14.455-0.516-24.094c-0.052-2.427,0.315-3.654,1.106-3.686
				c1.336-0.049,2.006-0.075,3.342-0.135c0.789-0.033,1.22,1.148,1.289,3.547c0.07,2.474,0.104,3.707,0.177,6.182
				c-0.562,0.039-0.843,0.06-1.403,0.096c-0.064-2.43-0.095-3.645-0.16-6.072c-1.173,0.061-1.76,0.09-2.934,0.143
				c0.222,9.509,0.328,14.26,0.551,23.77c1.208-0.106,1.813-0.162,3.018-0.285c-0.074-2.774-0.111-4.162-0.188-6.938
				c0.568-0.05,0.854-0.075,1.421-0.129C271.587,346.018,271.629,347.424,271.71,350.239z"/>
			<path d="M280.264,352.652c-0.57,0.094-0.856,0.139-1.429,0.228c-0.013-0.337-0.019-0.505-0.03-0.842
				c-0.572,0.317-1.146,0.624-1.713,0.916c-0.688,0.354-1.267,0.562-1.727,0.624c-0.787,0.107-1.217-0.98-1.289-3.264
				c-0.35-11.035-0.523-16.556-0.873-27.59c0.554-0.029,0.83-0.041,1.384-0.07c0.36,10.777,0.538,16.168,0.897,26.945
				c1.283-0.266,1.924-0.404,3.201-0.688c-0.395-10.574-0.592-15.862-0.985-26.438c0.553-0.033,0.827-0.052,1.38-0.086
				C279.475,332.477,279.866,342.564,280.264,352.652z"/>
			<path d="M284.132,351.995c-0.569,0.104-0.854,0.162-1.423,0.263c-0.667-16.089-1.35-32.258-2.021-48.258c0.541,0,0.813,0,1.354,0
				C282.734,320,283.439,335.992,284.132,351.995z"/>
			<path d="M292.52,350.242c-0.563,0.13-0.848,0.193-1.412,0.32c-0.017-0.321-0.022-0.482-0.039-0.805
				c-0.557,0.344-1.115,0.68-1.674,0.996c-0.688,0.391-1.252,0.627-1.677,0.714c-0.786,0.161-1.233-0.854-1.335-3.043
				c-0.199-4.313-0.3-6.473-0.5-10.786c-0.105-2.27,0.245-3.453,1.047-3.56c1.332-0.176,1.998-0.269,3.327-0.46
				c-0.18-3.489-0.272-5.232-0.452-8.723c-1.205,0.123-1.807,0.185-3.014,0.299c0.098,2.004,0.145,3.007,0.24,5.011
				c-0.547,0.063-0.82,0.094-1.367,0.155c-0.094-1.992-0.137-2.988-0.229-4.98c-0.106-2.285,0.23-3.458,1.017-3.521
				c1.346-0.106,2.017-0.163,3.36-0.28c0.783-0.068,1.236,1.011,1.354,3.235C291.708,334.986,291.979,340.072,292.52,350.242z
				 M290.943,346.955c-0.211-4.096-0.315-6.145-0.527-10.239c-1.266,0.2-1.9,0.298-3.168,0.481
				c0.203,4.229,0.305,6.344,0.508,10.572C289.032,347.453,289.672,347.29,290.943,346.955z"/>
			<path d="M300.254,345.034c0.132,2.131-0.203,3.308-1.006,3.524c-1.3,0.351-1.95,0.521-3.256,0.848
				c-0.807,0.201-1.271-0.801-1.395-3.004c-0.144-2.582-0.219-3.875-0.361-6.457c0.558-0.106,0.836-0.162,1.394-0.273
				c0.146,2.539,0.22,3.809,0.364,6.348c1.148-0.269,1.723-0.406,2.865-0.69c-0.133-2.213-0.199-3.32-0.332-5.533
				c-1.67-2.933-2.506-4.44-4.164-7.532c-0.396-0.724-0.629-1.711-0.697-2.957c-0.105-1.896-0.156-2.84-0.262-4.733
				c-0.122-2.199,0.209-3.339,0.998-3.415c1.262-0.122,1.891-0.184,3.148-0.314c0.788-0.082,1.25,0.942,1.381,3.07
				c0.137,2.195,0.2,3.291,0.336,5.486c-0.541,0.086-0.813,0.132-1.355,0.217c-0.132-2.19-0.196-3.288-0.328-5.479
				c-1.128,0.139-1.693,0.207-2.822,0.338c0.111,1.973,0.168,2.957,0.28,4.929c1.669,3.094,2.508,4.604,4.188,7.534
				c0.39,0.668,0.625,1.629,0.703,2.894C300.063,341.911,300.126,342.954,300.254,345.034z"/>
			<path d="M304.033,342.25c-0.164,3.264-0.248,4.906-0.416,8.208c-0.407,0.128-0.608,0.19-1.016,0.315
				c-0.082-3.243-0.119-4.859-0.201-8.092C303.057,342.514,303.38,342.425,304.033,342.25z"/>
			<path d="M311.914,344.652c-0.633,0.222-0.951,0.33-1.586,0.545c-0.132-1.854-0.197-2.783-0.329-4.639
				c0.634-0.189,0.952-0.289,1.585-0.484C311.716,341.904,311.782,342.823,311.914,344.652z"/>
			<path d="M315.442,343.383c-0.628,0.233-0.944,0.35-1.575,0.577c-0.133-1.799-0.199-2.7-0.332-4.499
				c0.63-0.202,0.946-0.303,1.574-0.51C315.242,340.725,315.31,341.609,315.442,343.383z"/>
			<path d="M318.943,342.045c-0.623,0.246-0.935,0.367-1.561,0.607c-0.133-1.74-0.199-2.61-0.332-4.352
				c0.626-0.213,0.938-0.322,1.563-0.541C318.747,339.475,318.811,340.332,318.943,342.045z"/>
			<path d="M328.92,316.454c-0.292,8.307-0.426,12.599-0.683,21.438c-0.122,3.463-0.183,5.215-0.3,8.762
				c-0.522,0.296-0.787,0.441-1.313,0.73c0.12-3.602,0.182-5.383,0.306-8.902c-1.655-8.121-2.493-12.32-4.185-20.98
				c0.562-0.091,0.842-0.138,1.403-0.23c1.233,6.771,1.846,10.082,3.06,16.554c0.132-7.002,0.202-10.431,0.354-17.132
				C328.105,316.598,328.378,316.55,328.92,316.454z"/>
			<path d="M345.566,328.878c-0.504,0.306-0.757,0.455-1.263,0.756c-0.4-5.601-0.602-8.401-1.003-14.002
				c-1.15,0.351-1.729,0.524-2.885,0.871c0.446,5.896,0.67,8.845,1.116,14.741c-0.507,0.288-0.763,0.432-1.271,0.716
				c-0.471-6.108-0.705-9.162-1.176-15.271c-1.158,0.341-1.738,0.51-2.9,0.847c0.508,6.383,0.761,9.575,1.268,15.958
				c-0.52,0.275-0.779,0.413-1.3,0.686c-0.603-7.512-0.902-11.27-1.504-18.781c0.539-0.104,0.808-0.151,1.346-0.256
				c0.017,0.202,0.025,0.306,0.042,0.508c0.515-0.231,1.031-0.479,1.542-0.709c0.617-0.278,1.15-0.45,1.566-0.534
				c0.408-0.082,0.834,0.424,0.954,0.463c0.19,0.062,1.105-0.509,1.648-0.753c0.705-0.317,1.263-0.505,1.638-0.584
				c0.734-0.155,1.143,0.345,1.223,1.502C344.992,320.572,345.182,323.341,345.566,328.878z"/>
			<path d="M352.712,324.309c-0.48,0.325-0.723,0.487-1.207,0.81c-0.008-0.146-0.011-0.22-0.019-0.365
				c-0.482,0.416-0.968,0.83-1.451,1.238c-0.6,0.505-1.085,0.879-1.452,1.112c-0.68,0.433-1.06,0.101-1.13-0.99
				c-0.141-2.148-0.207-3.223-0.347-5.371c-0.073-1.131,0.259-1.835,0.989-2.119c1.217-0.473,1.819-0.712,3.025-1.2
				c-0.082-1.582-0.124-2.376-0.206-3.958c-1.126,0.314-1.69,0.473-2.821,0.778c0.061,0.97,0.089,1.453,0.148,2.423
				c-0.504,0.17-0.757,0.252-1.264,0.42c-0.063-0.99-0.096-1.482-0.159-2.474c-0.073-1.136,0.262-1.786,1.006-1.954
				c1.273-0.287,1.912-0.434,3.181-0.729c0.74-0.174,1.133,0.229,1.179,1.205C352.396,317.604,352.502,319.839,352.712,324.309z
				 M351.438,323.469c-0.097-1.857-0.146-2.787-0.241-4.645c-1.137,0.512-1.707,0.762-2.853,1.258
				c0.126,2.05,0.188,3.077,0.314,5.128C349.774,324.521,350.332,324.172,351.438,323.469z M351.366,307.604
				c-0.935,1.328-1.393,2.035-2.296,3.535c-0.372,0.072-0.561,0.107-0.933,0.18c-0.002-0.035-0.001-0.049-0.003-0.084
				c0.521-1.444,0.782-2.141,1.319-3.48c0.764-0.079,1.146-0.119,1.908-0.199C351.364,307.575,351.365,307.584,351.366,307.604z"/>
			<path d="M359,318.41c0,0.749-0.124,1.377-0.798,1.874c-1.091,0.805-1.535,1.202-2.642,1.983c-0.683,0.482-0.987,0.26-1.021-0.654
				c-0.04-1.074-0.035-1.612-0.075-2.687c0.49-0.261,0.749-0.393,1.237-0.657c0.031,1.019,0.051,1.526,0.081,2.545
				c0.983-0.641,1.479-0.967,2.454-1.623c-0.01-0.813-0.016-1.219-0.023-2.033c-1.298-0.461-1.967-0.784-3.345-1.596
				c-0.33-0.187-0.503-0.545-0.522-1.063c-0.028-0.787-0.045-1.18-0.074-1.967c-0.033-0.914,0.323-1.465,1.065-1.646
				c1.188-0.292,1.574-0.438,2.755-0.74c0.739-0.188,0.908,0.096,0.908,0.845c0,0.772,0,1.155,0,1.929
				c0,0.197-0.535,0.295-1.027,0.49c-0.01-0.807,0.087-1.208,0.078-2.016c-1.045,0.32-1.519,0.48-2.567,0.793
				c0.022,0.789,0.061,1.183,0.084,1.973c1.39,0.818,1.868,1.145,3.178,1.609c0.305,0.104,0.256,0.367,0.256,0.813
				C359,317.313,359,317.679,359,318.41z"/>
		</g>
	</g>
</g>
<g id="Textos_externos" display="none">
	
		<text transform="matrix(0.5392 0.8422 -0.8422 0.5392 357.1426 95.7905)" display="inline" fill="#0000FF" font-family="'AgencyFB-Reg'" font-size="36">PlayStation</text>
	
		<text transform="matrix(-0.0087 1 -1 -0.0087 415.7344 212.9751)" display="inline" fill="#00FF00" font-family="'XBOX360'" font-size="36.0014">XBOX</text>
	
		<text transform="matrix(-0.6155 0.7881 -0.7881 -0.6155 409.3428 319.1836)" display="inline" fill="#FF0000" font-family="'Pretendo'" font-size="24">Nintendo</text>
	
		<text transform="matrix(0.4809 -0.8768 0.8768 0.4809 77.0039 183.4956)" display="inline" font-family="'Waltograph'" font-size="36">Disney</text>
	
		<text transform="matrix(-0.628 -0.7782 0.7782 -0.628 153.0142 411.8398)" display="inline" fill="#0000FF" font-family="'SegoeUI'" font-size="36">Windows</text>
	<g display="inline">
		<g>
			<path fill="#FF0000" d="M72.654,285.1c-9.826,2.245-14.74,3.369-24.565,5.614c-0.364-1.591-0.538-2.387-0.871-3.981
				c6.585-4.102,9.923-6.047,16.671-9.723c-7.174,1.272-10.761,1.908-17.935,3.18c-0.198-1.116-0.294-1.676-0.478-2.795
				c9.946-1.631,14.92-2.444,24.867-4.076c0.19,1.162,0.291,1.742,0.499,2.9c-7.561,4.004-11.297,6.139-18.66,10.667
				c7.968-1.71,11.952-2.565,19.92-4.276C72.316,283.605,72.426,284.104,72.654,285.1z"/>
			<path fill="#FF0000" d="M57.317,262.637c0.264,2.615,0.416,3.922,0.764,6.529c3.554-0.475,5.333-0.711,8.887-1.186
				c-0.409-3.063-0.583-4.598-0.871-7.67c1.018-0.096,1.526-0.143,2.544-0.237c0.389,4.159,0.64,6.237,1.254,10.375
				c-9.97,1.479-14.956,2.22-24.925,3.7c-0.695-4.68-0.979-7.025-1.419-11.729c1.018-0.096,1.528-0.143,2.546-0.236
				c0.317,3.389,0.509,5.082,0.96,8.459c3.411-0.455,5.116-0.687,8.527-1.142c-0.353-2.64-0.507-3.963-0.774-6.61
				C55.813,262.79,56.314,262.738,57.317,262.637z"/>
			<path fill="#FF0000" d="M45.555,255.16c0.126,2.085,0.202,3.128,0.379,5.211c-1.019,0.087-1.528,0.13-2.547,0.217
				c-0.467-5.488-0.613-8.24-0.733-13.742c1.022-0.021,1.533-0.031,2.555-0.055c0.045,2.087,0.081,3.131,0.177,5.217
				c9.047-0.417,13.573-0.626,22.619-1.043c0.052,1.129,0.083,1.694,0.151,2.822C59.116,254.336,54.595,254.611,45.555,255.16z"/>
			<path fill="#FF0000" d="M57.005,235.327c-0.082,2.463-0.104,3.695-0.111,6.159c4.364,0.013,6.546,0.02,10.908,0.031
				c-0.003,1.131-0.001,1.694,0.012,2.824c-10.077,0.118-15.119,0.178-25.197,0.295c-0.053-4.552-0.021-6.83,0.163-11.38
				c1.021,0.042,1.533,0.062,2.555,0.104c-0.131,3.235-0.166,4.855-0.175,8.092c3.672,0.011,5.508,0.017,9.181,0.027
				c0.007-2.496,0.029-3.744,0.111-6.236C55.473,235.278,55.983,235.293,57.005,235.327z"/>
			<path fill="#FF0000" d="M42.896,230.723c0.066-1.276,0.105-1.915,0.191-3.19c9.037,0.604,13.558,0.906,22.594,1.51
				c0.196-2.931,0.32-4.396,0.626-7.32c1.016,0.106,1.524,0.16,2.54,0.266c-0.42,4.012-0.576,6.021-0.786,10.046
				C57.999,231.51,52.961,231.247,42.896,230.723z"/>
			<path fill="#FF0000" d="M69.429,217.05c-0.147,1.123-0.216,1.686-0.346,2.81c-10.011-1.16-15.02-1.741-25.031-2.9
				c0.147-1.271,0.226-1.907,0.392-3.177C54.437,215.09,59.437,215.744,69.429,217.05z"/>
			<path fill="#FF0000" d="M70.138,212.126c-0.167,1.063-0.247,1.594-0.398,2.658c-4.856-2.763-7.262-4.211-12.021-7.24
				c-5.156,1.202-7.732,1.864-12.873,3.312c0.19-1.317,0.291-1.975,0.501-3.289c4.262-1.115,6.396-1.632,10.665-2.581
				c-3.663-2.401-5.479-3.641-9.074-6.199c0.238-1.178,0.362-1.766,0.617-2.942c4.312,3.144,6.496,4.658,10.908,7.573
				c5.514-1.161,8.274-1.672,13.788-2.556c-0.255,1.168-0.378,1.753-0.615,2.924c-4.597,0.793-6.897,1.238-11.492,2.223
				C64.106,208.548,66.106,209.771,70.138,212.126z"/>
		</g>
	</g>
</g>
<g id="Contacto" display="none">
	<g id="Instagram" display="inline">
		
			<image overflow="visible" enable-background="new    " width="652" height="554" xlink:href="B0F3F0EC.jpeg"  transform="matrix(0.0602 0 0 0.0593 153.0063 393.2578)">
		</image>
		<g>
			<g>
				<path d="M205.48,431.445c-6.127-1.472-9.169-2.334-15.192-4.313c-0.776-0.255-1.187-0.8-1.223-1.629
					c-0.481-10.8-0.465-16.173,0.068-26.8c0.041-0.816,0.39-1.092,1.046-0.835c4.694,1.838,7.068,2.663,11.855,4.13
					c0.669,0.205,1.018,0.712,1.047,1.528c0.291,8.059,0.581,12.107,1.459,20.222c0.088,0.822-0.247,1.139-1.009,0.94
					c-3.576-0.93-5.357-1.44-8.896-2.55c-0.836-0.262-1.276-0.836-1.317-1.711c-0.128-2.762-0.174-4.14-0.234-6.892
					c-0.02-0.898,0.37-1.209,1.162-0.945c1.38,0.46,2.071,0.683,3.458,1.112c-0.091-2.083-0.127-3.121-0.18-5.199
					c-1.107-0.355-1.66-0.54-2.762-0.915c0.011,1.222,0.021,1.832,0.045,3.056c-0.659-0.22-0.99-0.329-1.647-0.557
					c-0.014-1.373-0.018-2.058-0.016-3.428c0.001-0.895,0.387-1.207,1.148-0.942c1.452,0.504,2.178,0.748,3.639,1.22
					c0.766,0.246,1.161,0.813,1.191,1.705c0.184,5.456,0.343,8.192,0.794,13.679c1.308,0.371,1.964,0.55,3.277,0.896
					c-0.804-8.016-1.063-12.018-1.294-19.976c-4.687-1.429-7.012-2.231-11.612-4.014c-0.452,10.57-0.428,15.913,0.125,26.648
					c5.903,1.948,8.885,2.799,14.891,4.256C205.373,430.658,205.409,430.922,205.48,431.445z M198.161,421.557
					c-0.178-2.472-0.252-3.705-0.376-6.171c-1.199-0.368-1.798-0.557-2.993-0.945c0.081,2.468,0.135,3.7,0.271,6.176
					C196.299,421.003,196.919,421.191,198.161,421.557z"/>
				<path d="M218.953,432.16c0.281,1.39-0.266,1.975-1.652,1.731c-2.246-0.393-3.367-0.604-5.604-1.063
					c-1.381-0.283-2.182-1.139-2.393-2.542c-0.247-1.646-0.366-2.468-0.589-4.113c0.928,0.213,1.392,0.313,2.322,0.516
					c0.241,1.628,0.368,2.442,0.633,4.07c1.952,0.405,2.929,0.596,4.888,0.949c-0.271-1.436-0.403-2.156-0.656-3.592
					c-2.858-2.575-4.239-3.889-6.903-6.568c-0.637-0.63-0.997-1.348-1.085-2.141c-0.134-1.205-0.197-1.807-0.318-3.01
					c-0.141-1.399,0.422-1.936,1.674-1.634c2,0.482,3.003,0.706,5.014,1.13c1.258,0.265,1.985,1.081,2.196,2.473
					c0.217,1.432,0.331,2.146,0.566,3.579c-0.891-0.167-1.337-0.254-2.227-0.434c-0.215-1.42-0.318-2.129-0.516-3.549
					c-1.818-0.378-2.726-0.579-4.536-1.005c0.143,1.262,0.217,1.893,0.375,3.155c2.667,2.667,4.051,3.975,6.913,6.535
					c0.665,0.586,1.076,1.289,1.231,2.111C218.545,430.121,218.678,430.802,218.953,432.16z"/>
				<path d="M233.049,433.986c0.381,1.364-0.117,1.987-1.514,1.851c-2.477-0.245-3.714-0.386-6.186-0.711
					c-1.382-0.182-2.235-0.978-2.543-2.361c-1.225-5.487-1.768-8.235-2.715-13.731c-0.239-1.386,0.275-1.961,1.53-1.752
					c2.244,0.374,3.369,0.542,5.621,0.843c1.27,0.17,2.053,0.928,2.366,2.299C230.846,425.857,231.534,428.572,233.049,433.986z
					 M230.587,433.677c-1.429-5.375-2.076-8.073-3.234-13.467c-2-0.263-2.997-0.408-4.99-0.728c1.007,5.425,1.577,8.14,2.856,13.554
					C227.364,433.323,228.438,433.451,230.587,433.677z"/>
				<path d="M236.794,410.756c-1.212-0.1-1.817-0.155-3.027-0.277c0.779,3.436,1.196,5.151,2.087,8.577
					c1.124,0.095,1.686,0.139,2.81,0.214c0.233,0.841,0.351,1.262,0.59,2.101c-1.138-0.072-1.708-0.112-2.844-0.203
					c1.656,6.17,2.576,9.247,4.595,15.374c-0.974-0.048-1.461-0.075-2.435-0.136c-1.941-6.151-2.823-9.241-4.401-15.433
					c-0.773-0.07-1.16-0.108-1.933-0.188c-0.207-0.849-0.307-1.272-0.507-2.121c0.764,0.082,1.144,0.123,1.908,0.196
					c-0.855-3.468-1.254-5.204-1.996-8.68c-0.291-1.364,0.164-1.973,1.35-1.847c1.316,0.14,1.974,0.202,3.292,0.316
					C236.485,409.492,236.587,409.913,236.794,410.756z"/>
				<path d="M253.229,436.756c-1.405,0.021-2.11,0.023-3.519,0.019c-1.39-0.007-2.331-0.687-2.81-2.021
					c-1.893-5.262-2.771-7.905-4.391-13.208c-0.803-0.036-1.203-0.058-2.005-0.103c-0.246-0.838-0.366-1.255-0.605-2.094
					c0.793,0.049,1.189,0.068,1.982,0.107c-0.644-2.165-0.952-3.251-1.55-5.421c0.861,0.052,1.293,0.074,2.154,0.115
					c0.625,2.163,0.947,3.243,1.617,5.4c1.151,0.042,1.729,0.059,2.881,0.081c0.272,0.828,0.41,1.241,0.688,2.068
					c-1.167-0.02-1.748-0.031-2.914-0.069c1.677,5.254,2.58,7.87,4.525,13.079c1.252,0.008,1.878,0.009,3.13-0.004
					C252.734,435.528,252.9,435.938,253.229,436.756z"/>
				<path d="M264.607,419.109c1.59,6.75,2.434,10.116,4.223,16.834c-0.883,0.084-1.323,0.121-2.206,0.194
					c-3.489-4.923-5.133-7.424-8.218-12.489c1.101,5.152,1.681,7.725,2.906,12.859c-0.871,0.049-1.306,0.071-2.176,0.11
					c-4.438-6.665-6.477-10.065-10.186-16.955c0.848,0.008,1.271,0.01,2.12,0.007c2.797,5.266,4.3,7.87,7.51,13.012
					c-1.177-5.229-1.731-7.843-2.776-13.088c0.785-0.022,1.176-0.038,1.963-0.069c3.028,5.152,4.649,7.697,8.094,12.71
					c-1.415-5.177-2.09-7.771-3.368-12.971C263.339,419.207,263.764,419.177,264.607,419.109z"/>
				<path d="M284.756,431.702c0.734,1.212,0.419,1.947-0.966,2.188c-2.456,0.431-3.688,0.624-6.153,0.975
					c-1.379,0.194-2.41-0.34-3.078-1.59c-2.647-4.959-3.904-7.461-6.285-12.502c-0.601-1.271-0.262-1.967,1-2.102
					c2.254-0.241,3.381-0.382,5.629-0.695c1.268-0.177,2.227,0.346,2.895,1.581C280.448,424.463,281.84,426.894,284.756,431.702z
					 M282.297,432.063c-2.82-4.794-4.168-7.217-6.729-12.102c-1.994,0.283-2.991,0.409-4.991,0.636
					c2.421,4.956,3.696,7.416,6.379,12.288C279.096,432.586,280.163,432.422,282.297,432.063z"/>
				<path d="M292.386,432.189c-0.956,0.212-1.437,0.313-2.396,0.515c-5.297-8.18-10.172-16.631-14.596-25.313
					c0.828-0.126,1.246-0.192,2.072-0.33C281.998,415.69,286.982,424.079,292.386,432.189z"/>
				<path d="M287.936,407.1c-1.19,0.272-1.791,0.404-2.984,0.655c1.783,3.038,2.703,4.548,4.594,7.543
					c1.104-0.251,1.656-0.381,2.757-0.648c0.478,0.729,0.718,1.093,1.2,1.819c-1.111,0.276-1.671,0.41-2.787,0.669
					c3.453,5.379,5.266,8.033,9.059,13.26c-0.949,0.25-1.424,0.372-2.377,0.61c-3.724-5.272-5.502-7.952-8.885-13.375
					c-0.762,0.166-1.143,0.248-1.904,0.405c-0.455-0.746-0.678-1.12-1.125-1.868c0.754-0.152,1.129-0.23,1.883-0.393
					c-1.867-3.045-2.775-4.579-4.534-7.666c-0.69-1.213-0.44-1.934,0.729-2.171c1.301-0.266,1.951-0.403,3.248-0.694
					C287.254,405.989,287.48,406.359,287.936,407.1z"/>
				<path d="M307.816,428.089c-0.94,0.292-1.411,0.435-2.354,0.714c-5.968-7.709-11.539-15.725-16.671-24.015
					c0.818-0.194,1.229-0.295,2.045-0.5C296.073,412.513,301.745,420.459,307.816,428.089z"/>
				<path d="M314.342,425.935c-0.932,0.326-1.398,0.485-2.335,0.801c-6.247-7.488-12.106-15.3-17.534-23.401
					c0.813-0.224,1.219-0.34,2.029-0.574C302.034,410.792,307.994,418.529,314.342,425.935z"/>
				<path d="M325.378,417.693c0.79,0.81,1.117,1.623,0.96,2.448c-0.156,0.826-0.757,1.464-1.795,1.895
					c-2.464,1.021-3.705,1.512-6.195,2.445c-6.514-7.262-12.646-14.862-18.359-22.771c0.818-0.256,1.229-0.388,2.043-0.654
					c2.736,3.685,4.146,5.507,7.056,9.098c0.778-0.396,1.556-0.8,2.324-1.209c0.973-0.52,1.761-0.905,2.371-1.142
					c1.188-0.458,2.227-0.187,3.13,0.826C320.202,412.317,321.896,414.131,325.378,417.693z M322.84,418.384
					c-3.239-3.415-4.816-5.148-7.886-8.673c-1.865,0.784-2.803,1.159-4.688,1.889c3.458,4.211,5.246,6.283,8.939,10.354
					c1.284-0.495,1.924-0.75,3.201-1.27C323.669,420.173,323.808,419.403,322.84,418.384z"/>
			</g>
		</g>
	</g>
	<g id="Whatsapp" display="inline">
		
			<image overflow="visible" enable-background="new    " width="231" height="231" xlink:href="B0F3F0EC.jpeg"  transform="matrix(0.1594 0 0 0.1599 134.5952 55.5952)">
		</image>
		<g>
			<g>
				<path d="M198.359,74.648c0.302,0.533,0.357,1,0.174,1.396c-0.184,0.397-0.562,0.643-1.134,0.737
					c-2.906,0.482-4.357,0.74-7.255,1.285c-0.57,0.107-1.134,0.03-1.696-0.231c-0.561-0.261-1.001-0.653-1.321-1.176
					c-5.249-8.593-7.988-12.844-13.695-21.246c-0.346-0.511-0.438-0.972-0.271-1.382c0.167-0.41,0.559-0.681,1.172-0.815
					c3.118-0.684,4.68-1.009,7.808-1.625c0.616-0.121,1.23-0.055,1.842,0.198c0.612,0.252,1.083,0.643,1.412,1.165
					C190.812,61.544,193.404,65.885,198.359,74.648z M195.8,74.858c-4.934-8.57-7.512-12.815-12.891-21.213
					c-2.706,0.529-4.057,0.807-6.754,1.387c5.54,8.294,8.199,12.491,13.296,20.965C191.987,75.518,193.257,75.29,195.8,74.858z"/>
				<path d="M211.001,67.582c-0.855,0.104-1.282,0.157-2.136,0.267c1.432,2.708,2.136,4.066,3.524,6.789
					c-0.922,0.111-1.383,0.168-2.304,0.286c-1.407-2.712-2.121-4.065-3.571-6.764c-3.171,0.429-4.755,0.662-7.918,1.164
					c-0.263-0.464-0.395-0.695-0.66-1.158c-1.325-7.521-1.991-11.282-3.33-18.801c0.992-0.16,1.489-0.238,2.481-0.391
					c0.023,0.039,0.035,0.059,0.058,0.098c1.227,7.16,1.836,10.741,3.051,17.903c2.104-0.322,3.157-0.476,5.264-0.766
					c-2.036-3.751-3.075-5.62-5.194-9.342c0.971-0.145,1.457-0.215,2.429-0.353c2.094,3.737,3.12,5.613,5.13,9.378
					c0.859-0.112,1.289-0.167,2.148-0.274C210.386,66.402,210.592,66.795,211.001,67.582z"/>
				<path d="M220.295,73.776c-0.987,0.096-1.48,0.145-2.467,0.248c-3.574-7.297-5.438-10.924-9.318-18.127
					c-0.453,0.057-0.68,0.085-1.133,0.144c-0.018-0.033-0.026-0.051-0.044-0.084c-1.056-3.232-1.592-4.844-2.677-8.069
					c0.858-0.114,1.289-0.17,2.147-0.279C211.542,56.204,216.041,64.931,220.295,73.776z"/>
				<path d="M232.601,65.624c-0.858,0.051-1.287,0.077-2.145,0.133c1.258,2.792,1.876,4.192,3.091,6.996
					c-0.925,0.053-1.387,0.082-2.313,0.142c-1.234-2.795-1.862-4.189-3.14-6.973c-3.186,0.23-4.777,0.363-7.959,0.667
					c-0.233-0.479-0.351-0.718-0.585-1.197c-0.853-7.589-1.284-11.383-2.15-18.971c0.998-0.097,1.498-0.145,2.497-0.235
					c0.021,0.041,0.03,0.06,0.051,0.1c0.777,7.223,1.163,10.835,1.928,18.059c2.115-0.189,3.175-0.277,5.292-0.435
					c-1.796-3.871-2.716-5.801-4.596-9.648c0.977-0.083,1.464-0.123,2.441-0.2c1.854,3.861,2.76,5.795,4.529,9.679
					c0.863-0.059,1.295-0.086,2.159-0.14C232.062,64.409,232.242,64.814,232.601,65.624z"/>
				<path d="M242.805,72.344c-0.969,0.029-1.451,0.046-2.421,0.083c-1.786-10.079-2.731-15.114-4.727-25.169
					c-2.536,0.122-3.804,0.194-6.338,0.359c0.741,1.572,1.108,2.36,1.834,3.937c-1.043,0.063-1.565,0.097-2.608,0.168
					c-1.133-2.411-1.707-3.614-2.873-6.016c4.73-0.354,7.096-0.494,11.832-0.696c0.222,0.497,0.333,0.746,0.554,1.244
					C240.07,56.677,241.02,61.896,242.805,72.344z"/>
				<path d="M255.939,72.197c-0.969-0.008-1.453-0.009-2.422-0.01c-1.396-10.141-2.146-15.208-3.752-25.333
					c-2.539,0.023-3.809,0.046-6.346,0.114c0.68,1.6,1.018,2.4,1.682,4.003c-1.043,0.023-1.566,0.038-2.61,0.068
					c-1.039-2.453-1.566-3.677-2.638-6.122c4.737-0.171,7.106-0.219,11.846-0.238c0.201,0.505,0.303,0.758,0.504,1.264
					C253.813,56.438,254.561,61.688,255.939,72.197z"/>
				<path d="M275.271,72.904c-4.386-0.285-6.578-0.393-10.97-0.536c-0.174-0.526-0.26-0.789-0.435-1.315
					c1.049-6.967,1.594-10.447,2.727-17.406c-0.914-2.659-1.382-3.987-2.334-6.64c-2.423-0.073-3.635-0.101-6.059-0.134
					c0.939,2.488,1.4,3.734,2.308,6.229c-1.046-0.021-1.567-0.031-2.614-0.045c-0.955-2.572-1.444-3.857-2.438-6.423
					c-0.223-0.575-0.209-1.042,0.045-1.404s0.693-0.541,1.316-0.534c2.883,0.028,4.322,0.056,7.203,0.141
					c0.625,0.019,1.199,0.219,1.725,0.601c0.523,0.381,0.893,0.864,1.097,1.446c0.831,2.367,1.239,3.553,2.041,5.924
					c0.241,0.714,0.287,1.519,0.136,2.415c-1.013,6.022-1.504,9.037-2.455,15.065c3.224,0.126,4.832,0.207,8.053,0.408
					C274.88,71.578,275.011,72.02,275.271,72.904z"/>
				<path d="M289.363,74.114c-4.375-0.467-6.565-0.665-10.95-0.991c-0.151-0.533-0.226-0.799-0.378-1.332
					c1.337-6.917,2.025-10.374,3.447-17.279c-0.806-2.694-1.219-4.041-2.062-6.731c-2.419-0.174-3.63-0.251-6.051-0.385
					c0.837,2.525,1.247,3.789,2.05,6.318c-1.044-0.064-1.564-0.095-2.609-0.152c-0.851-2.61-1.285-3.913-2.17-6.518
					c-0.199-0.584-0.166-1.052,0.103-1.403c0.269-0.352,0.715-0.512,1.339-0.479c2.879,0.148,4.316,0.237,7.193,0.441
					c0.623,0.044,1.19,0.268,1.699,0.671c0.51,0.403,0.854,0.9,1.035,1.49c0.733,2.4,1.092,3.601,1.797,6.004
					c0.211,0.723,0.223,1.53,0.034,2.419c-1.263,5.975-1.878,8.965-3.079,14.949c3.219,0.26,4.824,0.408,8.036,0.744
					C289.025,72.773,289.141,73.22,289.363,74.114z"/>
				<path d="M303.989,74.023c0.124,0.599,0.04,1.063-0.257,1.384c-0.297,0.323-0.732,0.441-1.307,0.357
					c-2.912-0.426-4.371-0.623-7.291-0.985c-0.574-0.071-1.087-0.317-1.539-0.737c-0.453-0.419-0.756-0.926-0.899-1.521
					c-2.369-9.782-3.677-14.666-6.535-24.406c-0.175-0.592-0.119-1.057,0.164-1.396c0.282-0.34,0.737-0.479,1.358-0.422
					c3.164,0.298,4.744,0.463,7.9,0.829c0.621,0.072,1.184,0.322,1.688,0.749s0.836,0.94,0.99,1.538
					C300.798,59.243,301.941,64.167,303.989,74.023z M301.488,73.444c-2.084-9.665-3.242-14.492-5.799-24.128
					c-2.729-0.319-4.097-0.467-6.83-0.734c2.733,9.586,3.982,14.392,6.246,24.016C297.661,72.913,298.938,73.081,301.488,73.444z"/>
				<path d="M318.978,76.612c0.1,0.604-0.001,1.063-0.301,1.373c-0.3,0.312-0.732,0.412-1.304,0.303
					c-2.688-0.516-4.034-0.759-6.729-1.22c-0.57-0.098-1.068-0.366-1.497-0.806c-0.43-0.438-0.704-0.958-0.821-1.56
					c-0.568-2.921-0.861-4.383-1.474-7.303c1,0.155,1.498,0.236,2.497,0.398c0.572,2.836,0.85,4.254,1.382,7.091
					c2.311,0.394,3.465,0.6,5.77,1.033c-0.928-5.447-1.428-8.171-2.502-13.617c-3.383-0.587-5.076-0.859-8.469-1.364
					c-1.021-5.164-1.562-7.746-2.705-12.904c4.344,0.591,6.511,0.919,10.84,1.64c0.197,0.91,0.295,1.365,0.487,2.275
					c-3.279-0.554-4.921-0.813-8.21-1.292c0.668,3.358,0.988,5.039,1.604,8.398c2.608,0.401,3.911,0.613,6.514,1.063
					c0.602,0.104,1.13,0.381,1.582,0.83c0.453,0.449,0.739,0.977,0.854,1.582C317.568,68.166,318.063,70.981,318.978,76.612z"/>
				<path d="M327.503,80.392c-0.951-0.213-1.428-0.317-2.381-0.523c0.759-10.209,1.088-15.32,1.637-25.558
					c-2.5-0.513-3.754-0.759-6.26-1.228c0.331,1.708,0.494,2.561,0.811,4.268c-1.03-0.198-1.547-0.295-2.579-0.485
					c-0.505-2.617-0.765-3.924-1.303-6.54c4.687,0.83,7.023,1.284,11.688,2.267c0.093,0.537,0.139,0.805,0.229,1.342
					C328.721,64.533,328.354,69.825,327.503,80.392z"/>
			</g>
		</g>
	</g>
</g>
</svg>
